<mxfile host="Electron" modified="2024-01-10T23:14:00.786Z" agent="Mozilla/5.0 (Macintosh; Intel Mac OS X 10_15_7) AppleWebKit/537.36 (KHTML, like Gecko) draw.io/22.1.18 Chrome/120.0.6099.199 Electron/28.1.2 Safari/537.36" etag="Ytme8Wv-qA9yt664m7bU" version="22.1.18" type="device">
  <diagram name="Page-1" id="lzt2sI2y9qoeamVy5k_M">
    <mxGraphModel dx="1114" dy="924" grid="1" gridSize="10" guides="1" tooltips="1" connect="1" arrows="1" fold="1" page="1" pageScale="1" pageWidth="850" pageHeight="1100" math="0" shadow="0">
      <root>
        <mxCell id="0" />
        <mxCell id="1" parent="0" />
        <mxCell id="O_wyWamwrNVHqIWRpiBb-7" style="edgeStyle=orthogonalEdgeStyle;rounded=0;orthogonalLoop=1;jettySize=auto;html=1;" edge="1" parent="1" source="O_wyWamwrNVHqIWRpiBb-1" target="O_wyWamwrNVHqIWRpiBb-2">
          <mxGeometry relative="1" as="geometry" />
        </mxCell>
        <mxCell id="O_wyWamwrNVHqIWRpiBb-9" value="checkt zustand in Backend" style="edgeLabel;html=1;align=center;verticalAlign=middle;resizable=0;points=[];" vertex="1" connectable="0" parent="O_wyWamwrNVHqIWRpiBb-7">
          <mxGeometry x="-0.2" y="-3" relative="1" as="geometry">
            <mxPoint x="16" y="-3" as="offset" />
          </mxGeometry>
        </mxCell>
        <mxCell id="O_wyWamwrNVHqIWRpiBb-1" value="Frontend" style="rounded=0;whiteSpace=wrap;html=1;" vertex="1" parent="1">
          <mxGeometry x="70" y="190" width="120" height="60" as="geometry" />
        </mxCell>
        <mxCell id="O_wyWamwrNVHqIWRpiBb-10" style="edgeStyle=orthogonalEdgeStyle;rounded=0;orthogonalLoop=1;jettySize=auto;html=1;" edge="1" parent="1" source="O_wyWamwrNVHqIWRpiBb-2" target="O_wyWamwrNVHqIWRpiBb-3">
          <mxGeometry relative="1" as="geometry" />
        </mxCell>
        <mxCell id="O_wyWamwrNVHqIWRpiBb-11" value="prueft alle 3min ob esp online" style="edgeLabel;html=1;align=center;verticalAlign=middle;resizable=0;points=[];" vertex="1" connectable="0" parent="O_wyWamwrNVHqIWRpiBb-10">
          <mxGeometry x="-0.2167" y="1" relative="1" as="geometry">
            <mxPoint x="24" y="1" as="offset" />
          </mxGeometry>
        </mxCell>
        <mxCell id="O_wyWamwrNVHqIWRpiBb-2" value="backend&lt;br&gt;&lt;br&gt;stellt endpunkt mit aktuellem leuchten zustand bereit" style="rounded=0;whiteSpace=wrap;html=1;" vertex="1" parent="1">
          <mxGeometry x="70" y="340" width="120" height="100" as="geometry" />
        </mxCell>
        <mxCell id="O_wyWamwrNVHqIWRpiBb-3" value="leuchten-esp" style="rounded=0;whiteSpace=wrap;html=1;" vertex="1" parent="1">
          <mxGeometry x="70" y="540" width="120" height="60" as="geometry" />
        </mxCell>
        <mxCell id="O_wyWamwrNVHqIWRpiBb-5" style="edgeStyle=orthogonalEdgeStyle;rounded=0;orthogonalLoop=1;jettySize=auto;html=1;" edge="1" parent="1" source="O_wyWamwrNVHqIWRpiBb-4" target="O_wyWamwrNVHqIWRpiBb-1">
          <mxGeometry relative="1" as="geometry" />
        </mxCell>
        <mxCell id="O_wyWamwrNVHqIWRpiBb-6" value="aufruf" style="edgeLabel;html=1;align=center;verticalAlign=middle;resizable=0;points=[];" vertex="1" connectable="0" parent="O_wyWamwrNVHqIWRpiBb-5">
          <mxGeometry x="-0.0909" y="2" relative="1" as="geometry">
            <mxPoint as="offset" />
          </mxGeometry>
        </mxCell>
        <mxCell id="O_wyWamwrNVHqIWRpiBb-4" value="user" style="shape=umlActor;verticalLabelPosition=bottom;verticalAlign=top;html=1;outlineConnect=0;" vertex="1" parent="1">
          <mxGeometry x="115" y="30" width="30" height="60" as="geometry" />
        </mxCell>
      </root>
    </mxGraphModel>
  </diagram>
</mxfile>
